<?xml version="1.0" encoding="UTF-8"?>
<svg width="25.4mm" height="128.5mm" version="1.1" viewBox="0 0 25.4 128.5" xmlns="http://www.w3.org/2000/svg" xmlns:osb="http://www.openswatchbook.org/uri/2009/osb" xmlns:xlink="http://www.w3.org/1999/xlink">
 <defs>
  <linearGradient id="linearGradient1054" x1="-29.763" x2="96.762" y1="-34.859" y2="123.94" gradientTransform="matrix(3.4016 0 0 3.7795 -124.8 -9.4488e-7)" gradientUnits="userSpaceOnUse">
   <stop stop-color="#2a2a2a" stop-opacity=".55752" offset="0"/>
   <stop stop-color="#111" stop-opacity=".20649" offset="1"/>
  </linearGradient>
  <linearGradient id="linearGradient1262" x1="-28.01" x2="98.921" y1="146.52" y2="2.5353" gradientTransform="matrix(-3.4016 0 0 -3.7795 220.8 485.67)" gradientUnits="userSpaceOnUse">
   <stop stop-color="#2a2a2a" stop-opacity=".55752" offset="0"/>
   <stop stop-color="#111" stop-opacity=".20649" offset="1"/>
  </linearGradient>
 </defs>
 <g fill-rule="evenodd">
  <path transform="scale(.26458)" d="m0 0v485.67h96v-485.67z" stroke-width=".54974"/>
  <path transform="scale(.26458)" d="m0 0v485.67h96v-485.67z" fill="url(#linearGradient1054)" stroke-width=".54974"/>
  <path transform="scale(.26458)" d="m0 0v485.67h96v-485.67z" display="none" fill="url(#linearGradient1262)" stroke-width=".54974"/>
 </g>
 <g fill="#695011" fill-opacity=".5" fill-rule="evenodd">
  <path d="m6.8033 23.151v91.079h0.2496v-91.079z" stroke-width=".28595"/>
  <path d="m18.26 23.151v91.079h0.2496v-91.079z" stroke-width=".28595"/>
  <path transform="scale(.26458)" d="m59.215 53.785v15.439l0.94531 1.6484v-17.088zm2.834 0v20.379l0.94531 1.6484v-22.027zm2.8359 0v25.322l0.65039 1.1328h0.29297v-26.455zm2.834 0v26.455h0.94531v-26.455zm2.834 0v26.455h0.94531v-26.455zm2.8359 0v26.428l0.94336-1.625v-24.803zm2.834 0v21.549l0.94531-1.627v-19.922zm2.834 0v16.67l0.94531-1.627v-15.043z" stroke-width=".28594"/>
  <path d="m4.2571 14.231v4.085l0.25011 0.43615v-4.5212zm0.74982 0v5.3919l0.25011 0.43615v-5.8281zm0.75034 0v6.6998l0.17208 0.29972h0.077515v-6.9996zm0.74982 0v6.9996h0.25011v-6.9996zm0.74982 0v6.9996h0.25011v-6.9996zm0.75034 0v6.9923l0.2496-0.42995v-6.5624zm0.74982 0v5.7015l0.25011-0.43046v-5.271zm0.74983 0v4.4106l0.25011-0.43046v-3.9801z" stroke-width=".075655"/>
 </g>
 <g>
  <path d="m7.0786 21.179c-0.091598 0.01-0.16823 0.03962-0.22996 0.0894-0.061729 0.04978-0.11765 0.1074-0.16743 0.17312-0.04779 0.06372-0.095353 0.1297-0.14314 0.1974-0.04779 0.0677-0.1026 0.12533-0.16433 0.17312-0.00996-0.01593-0.031185-0.0288-0.063045-0.03876-0.029869-0.01195-0.058422-0.01587-0.086299-0.01188-0.023894 0.05376-0.044015 0.11139-0.059945 0.17312-0.013938 0.05974-0.026809 0.12239-0.038757 0.1881-0.011949 0.06372-0.025929 0.12859-0.041858 0.1943-0.013938 0.06571-0.034059 0.12947-0.059945 0.1912 0.00198 0.01195 0.0031 0.02763 0.0031 0.04754 0.00198 0.01792 8.732e-4 0.03582-0.0031 0.05374-0.00198 0.01593-0.00591 0.02991-0.011885 0.04186-0.00398 0.01-0.010713 0.01217-0.020672 0.0062 0.013938 0.03584 0.016751 0.07053 0.00878 0.10439-0.00597 0.03186-0.013814 0.06596-0.02377 0.1018-0.00996 0.03385-0.018907 0.06965-0.026872 0.10749-0.00597 0.03584-0.00206 0.07557 0.011885 0.11937h-0.033073c0.00996 0.01593 0.018907 0.03272 0.026872 0.05064 0.00796 0.01591 0.017431 0.02316 0.027389 0.02119-0.00597 0.01593-0.00819 0.02991-0.0062 0.04186 0.00398 0.01195 0.0079 0.02371 0.011885 0.03566 0.00398 0.01 0.00679 0.02172 0.00878 0.03566 0.00198 0.01195 2.91e-4 0.02703-0.00568 0.04496 0.025887-2e-3 0.041569 0.0058 0.047542 0.02377 0.00597 0.01593 0.012113 0.03324 0.018087 0.05116 0.021905-2e-3 0.037586-2.91e-4 0.047542 0.0057 0.00996 6e-3 0.019423 0.01211 0.027388 0.01809 0.00796 6e-3 0.016915 0.01099 0.026872 0.01499 0.00996 6e-3 0.024529 0.0066 0.044441 0.0026 0.015931-0.01 0.028801-0.02061 0.038758-0.03256 0.011949-0.01195 0.034286-0.01476 0.066146-0.0088 0.039825-0.05177 0.069488-0.10266 0.0894-0.15245 0.021905-0.04978 0.037586-0.11465 0.047542-0.1943 0.00597-2e-3 0.0093-0.0059 0.0093-0.01188 0.00198-6e-3 0.00591-0.0099 0.011885-0.01189 0.043808 0.03983 0.08242 0.07452 0.11627 0.10439 0.033852 0.02788 0.070763 0.05473 0.11059 0.08062 0.039825 0.0239 0.086796 0.04905 0.14056 0.07493 0.053764 0.02589 0.12315 0.05444 0.20877 0.0863 0.17324 0.06571 0.31585 0.11157 0.42736 0.13746 0.11151 0.0259 0.20323 0.02478 0.27492-0.0031 0.019913-2e-3 0.035595-0.0087 0.047542-0.02067 0.013938-0.01195 0.026218-0.02482 0.036174-0.03876l0.029456-0.04186c0.00996-0.01394 0.022236-0.0257 0.036174-0.03566-0.00996-2e-3 -0.020016-2e-3 -0.029972 0-0.00797 0-0.012996-0.0044-0.014986-0.0124 0.013941-0.01593 0.021783-0.03664 0.02377-0.06253 0.00398-0.02788 0.00287-0.05695-0.0031-0.08682s-0.015518-0.05953-0.029456-0.0894-0.03184-0.05561-0.053743-0.07751c-0.053764-6e-3 -0.096814-0.01099-0.12867-0.01499-0.03186-4e-3 -0.061522-0.0079-0.0894-0.01188-0.027878-6e-3 -0.059759-0.01322-0.095601-0.02119-0.033852-0.01-0.081931-0.02172-0.14366-0.03566-0.061729-0.01394-0.1104-0.0257-0.14624-0.03566-0.033852-0.01-0.065732-0.02223-0.095602-0.03617-0.027877-0.01593-0.058649-0.03494-0.092501-0.05684-0.03186-0.02191-0.077721-0.05046-0.13746-0.0863 0.00398-0.01195 0.00116-0.01809-0.00878-0.01809-0.00796 0-0.011885-0.0039-0.011885-0.01189 0.07965-0.03385 0.16804-0.06462 0.26562-0.0925 0.097572-0.02987 0.18929-0.06508 0.27492-0.1049 0.087616-0.04182 0.16092-0.09441 0.22066-0.15813 0.061729-0.06571 0.096939-0.1513 0.1049-0.25683 0-0.01593-0.00111-0.0288-0.0031-0.03876-0.00198-0.01195-0.0048-0.02201-0.00878-0.02997-0.00198-0.01-0.00421-0.01891-0.0062-0.02687 0-0.01 0.00222-0.02061 0.0062-0.03256-0.01792-0.03385-0.03412-0.07076-0.048059-0.11059-0.013938-0.03983-0.029028-0.07896-0.044958-0.11679-0.013938-0.03983-0.03073-0.07674-0.050643-0.11059-0.01792-0.03584-0.040852-0.06661-0.06873-0.0925v-0.04496l-0.047542-0.02946c-0.013938-0.01195-0.029028-0.02312-0.044958-0.03307-0.037834-0.05775-0.086507-0.10531-0.14624-0.14314-0.059738-0.03983-0.11344-0.07674-0.16123-0.11059zm-1.0692 0.0088c-0.07766 0-0.15762 5e-3 -0.23926 0.01499-0.081642 0.01-0.1622 0.02002-0.24185 0.02997-0.057747 8e-3 -0.11367 0.01581-0.16743 0.02377-0.053764 6e-3 -0.10636 0.011-0.15813 0.01499-0.00996-0.01195-0.023937-0.02371-0.041858-0.03566-0.01792-0.01394-0.049802-0.02008-0.095601-0.01809l-0.033073 0.01809c-0.00398 8e-3 -0.0079 0.0147-0.011885 0.02067-0.00198 6e-3 -0.00761 0.01995-0.017571 0.04186-0.10554 6e-3 -0.20451 0.01492-0.29611 0.02687-0.083633 8e-3 -0.1653 0.0147-0.24495 0.02067-0.079651 6e-3 -0.15688 0.0093-0.23254 0.0093h-0.05116c-0.01593 0-0.031612-0.0011-0.047542-0.0031h-0.044959l-0.011885 0.05374c-0.00597 6e-3 -0.012113 0.01381-0.018087 0.02377-0.00597 8e-3 -0.010488 0.02194-0.01447 0.04186 0 0.03783 0.00392 0.07082 0.011885 0.0987 0.00797 0.02788 0.016915 0.05362 0.026872 0.07751 0.00597 0.01593 0.011004 0.03102 0.014986 0.04496 0.00597 0.01195 0.0099 0.02593 0.011885 0.04186v0.03256l0.032556 0.0093c0.00996 2e-3 0.021124 0.01375 0.033073 0.03566l0.020672 0.02377c0.021905 0.01195 0.043133 0.02029 0.063046 0.02429 0.019912 2e-3 0.037813 0.0026 0.053743 0.0026h0.15193c0.013938-6e-3 0.032949-0.0088 0.056844-0.0088h0.11369c0.013938-2e-3 0.029028-7e-3 0.044959-0.01499 0.00796 2e-3 0.020836 0.0031 0.038758 0.0031 0.023894 0 0.048528-0.0028 0.074414-0.0088 0.011949-2e-3 0.023117-0.0031 0.033073-0.0031 0.011949-2e-3 0.024818-0.0031 0.038757-0.0031-0.00198 0.01195-0.00702 0.02593-0.014986 0.04186-0.00597 0.01593-0.012705 0.03161-0.020669 0.04754-0.011946 0.02589-0.023117 0.05214-0.033073 0.07803-0.00996 0.02389-0.014986 0.04853-0.014986 0.07441-0.00398 2e-3 -0.012933 0.0092-0.026872 0.02119l-0.032556 0.03256c-0.013938 0.05177-0.030138 0.10266-0.048059 0.15245-0.01792 0.04978-0.036932 0.09845-0.056844 0.14624-0.035843 0.08961-0.068316 0.18244-0.098185 0.27802-0.02987 0.09357-0.043257 0.20994-0.039274 0.34933 0.00996 0.01394 0.017203 0.03014 0.021188 0.04806 0.00597 0.01792 0.012113 0.03753 0.018087 0.05943 0.00597 0.02788 0.012705 0.05473 0.020672 0.08061 0.00996 0.02589 0.022828 0.04992 0.038758 0.07183 0 8e-3 -0.00111 0.02194-0.0031 0.04186l0.033073 0.01757c0.011949 8e-3 0.02763 0.01522 0.047542 0.02119 0.00398 4e-3 0.00901 0.0068 0.014986 0.0088 0.00597 0 0.011004 0.0022 0.014986 0.0062 0.00996 0.01393 0.021124 0.02287 0.033073 0.02687 0.011949 6e-3 0.027037 0.0127 0.044959 0.02067 0.00198 4e-3 0.00983 0.01293 0.02377 0.02687l0.041858 0.0031c0.083633 0 0.14296-0.02293 0.1788-0.06873 0.033852-0.03983 0.045021-0.09523 0.033073-0.16692l-0.029972-0.03617c-0.013938-2e-3 -0.028512-0.0098-0.044442-0.02377-0.00398-4e-3 -0.00901-0.0068-0.014986-0.0088-0.00597-2e-3 -0.011004-0.0053-0.014986-0.0093-0.00398-0.01195-0.00901-0.02201-0.014986-0.02997-0.00597-8e-3 -0.012113-0.0158-0.018087-0.02377-0.00398-0.01-0.00509-0.02002-0.0031-0.02997 0.00198-0.01195 0.00532-0.02482 0.0093-0.03876 0.00198-0.01195 0.0037-0.02371 0.00568-0.03566s0.0031-0.02371 0.0031-0.03566c0.00796-0.01195 0.014102-0.02926 0.018087-0.05116-0.00198-6e-3 -8.731e-4 -0.01382 0.0031-0.02377 0.00398-0.01195 0.0079-0.0226 0.011885-0.03256 0.00996-0.0239 0.017799-0.04905 0.02377-0.07493 0.00797-0.01 0.012996-0.01891 0.014986-0.02687 0.00398-8e-3 0.012933-0.01914 0.026872-0.03307l0.011885-0.04444c0.00996-0.02788 0.020608-0.06198 0.032556-0.1018 0.013938-0.03983 0.036277-0.07674 0.066146-0.11059 0.00996-0.04182 0.022828-0.07873 0.038757-0.11059 0.015931-0.03385 0.035533-0.06854 0.059428-0.10439 0.013938-0.04978 0.029028-0.09453 0.044958-0.13436 0.015931-0.04182 0.032722-0.08265 0.050643-0.12247 0.01792-0.03983 0.03523-0.07955 0.05116-0.11937 0.015931-0.03983 0.033831-0.08569 0.053744-0.13746 0.035843-4e-3 0.075565-0.0079 0.11937-0.01188 0.043808-6e-3 0.089669-0.01211 0.13746-0.01809 0.065712-0.01 0.13339-0.01891 0.20309-0.02687 0.069694-8e-3 0.13405-0.01188 0.19379-0.01188h0.041858c0.011949 0 0.029256 0.0011 0.05116 0.0031 0.011948-4e-3 0.022601-0.0073 0.032556-0.0093 0.00996-4e-3 0.018907-0.0079 0.026872-0.01189 0.013938-6e-3 0.026217-0.0099 0.036173-0.01188 0.00996-4e-3 0.02453-0.0057 0.044442-0.0057h0.033073l0.029973-0.03876c0.011949-8e-3 0.021489-0.01632 0.029455-0.02429l0.014986-0.02946c0.00797-0.06969-0.00269-0.1228-0.032556-0.15865-0.027877-0.03584-0.056947-0.0655-0.086816-0.0894-0.01593-0.01195-0.02991-0.02422-0.041858-0.03617s-0.022008-0.02482-0.029972-0.03876l-0.035657-0.02687c-0.027877-4e-3 -0.056947-0.0068-0.086816-0.0088s-0.061233-0.0031-0.095085-0.0031zm3.3719 0.0062c-0.061729 0.05376-0.13111 0.10355-0.20877 0.14934-0.075668 0.0458-0.15171 0.09055-0.22738 0.13436-0.075668 0.04381-0.14838 0.08967-0.21807 0.13746-0.069694 0.04779-0.12902 0.10038-0.1788 0.15813-0.021905 4e-3 -0.040321 0.01182-0.05426 0.02377-0.013938 0.01-0.02681 0.02224-0.038757 0.03617-0.00996 0.01394-0.020608 0.02851-0.032556 0.04444-0.00996 0.01394-0.023937 0.02792-0.041858 0.04186-0.10952 0.08563-0.20405 0.18519-0.2837 0.29869-0.07766 0.11151-0.14756 0.2329-0.20929 0.36432 0.00398 0.02788 0.00287 0.05081-0.0031 0.06873s-0.00878 0.03804-0.00878 0.05994c0.00398 4e-3 0.00901 0.0079 0.014986 0.01189 0.00597 2e-3 0.00767 0.0081 0.00568 0.01809 0.00996 0.20908 0.065877 0.373 0.16743 0.49248 0.10155 0.11947 0.24195 0.18324 0.42116 0.1912 0.025887 2e-3 0.053847-8.2e-4 0.083716-0.0088 0.029868-8e-3 0.058938-0.01188 0.086816-0.01188h0.080615c0.03186 0 0.067662-0.0028 0.10749-0.0088 0.00597-4e-3 0.0099-9e-3 0.011885-0.01499 0.00398-6e-3 0.010716-0.0082 0.020672-0.0062 0.025887-2e-3 0.049927-0.0048 0.07183-0.0088 0.021905-4e-3 0.043725-0.0079 0.065629-0.01188 0.021905-4e-3 0.044835-0.0073 0.06873-0.0093s0.052965-0.0026 0.086816-0.0026c0.077659-0.02987 0.15599-0.05613 0.23564-0.07803 0.081642-0.02389 0.16271-0.04572 0.24236-0.06563 0.07965-0.0219 0.15688-0.04372 0.23254-0.06563 0.075668-0.02389 0.14668-0.05296 0.21239-0.08682 0.0677-0.03385 0.12814-0.07357 0.1819-0.11937 0.05377-0.04779 0.09963-0.10541 0.13746-0.17312 4e-3 -0.02788 0.0023-0.05192-0.0057-0.07183s-0.01018-0.04565-0.0062-0.07751c-0.03385-0.01593-0.06241-0.03605-0.0863-0.05994l-0.07183-0.07131c-0.02389-0.02589-0.04904-0.04993-0.07493-0.07183-0.02589-0.02389-0.05666-0.04401-0.0925-0.05994-0.03783-0.02191-0.078666-0.04372-0.12247-0.06563-0.043808-0.0239-0.086341-0.04683-0.12816-0.06873-0.041817-0.02191-0.082055-0.04372-0.11989-0.06563-0.037834-0.02191-0.069715-0.04262-0.095601-0.06253l-0.24753 0.16433c-0.00398 0.01991-0.010123 0.0367-0.018087 0.05064-0.00797 0.01394-0.012996 0.03184-0.014986 0.05374 0.00797 4e-3 0.012996 4e-3 0.014986 0 0.00398-4e-3 0.0062-0.0079 0.0062-0.01188 0.00198-4e-3 0.0037-0.0079 0.00568-0.01188 0.00198-4e-3 0.00813-4e-3 0.018087 0 0.013938 0.01 0.020672 0.02283 0.020672 0.03876s-0.00673 0.02991-0.020672 0.04186c0.00398 0.04779 0.015745 0.0864 0.035657 0.11627 0.021905 0.02987 0.048755 0.05391 0.080615 0.07183-0.00796 0.01-0.018616 0.02002-0.032556 0.02997-0.011949 8e-3 -0.011949 0.01751 0 0.02946 0.027878 8e-3 0.059759 0.01913 0.095601 0.03307-0.12147 0.03186-0.24115 0.06374-0.35863 0.0956-0.11748 0.02987-0.2439 0.05169-0.37931 0.06563-0.00996 4e-3 -0.016097 0.01123-0.018087 0.02119-0.00198 0.01-0.00702 0.0178-0.014986 0.02377-0.065712-0.01394-0.13118-0.01786-0.19689-0.01188-0.065712 4e-3 -0.13621 4e-3 -0.21187 0-0.00398-0.01-0.010123-0.0189-0.018087-0.02687-0.00597-8e-3 -0.011004-0.01692-0.014986-0.02687 0.037834-0.06571 0.083695-0.1328 0.13746-0.2005 0.053764-0.06969 0.11139-0.13627 0.17312-0.19999 0.061729-0.06571 0.12549-0.12726 0.1912-0.185 0.067703-0.05775 0.13428-0.11086 0.19999-0.15865 0.065712-0.04779 0.13169-0.08921 0.1974-0.12506 0.067703-0.03783 0.13317-0.07304 0.19689-0.1049 0.065712-0.03186 0.12777-0.06152 0.18552-0.0894 0.059738-0.02987 0.11344-0.06064 0.16123-0.0925-0.00398-0.01593-0.00398-0.0271 0-0.03307 0.00597-8e-3 0.00878-0.01802 0.00878-0.02997 0-0.01394-0.00673-0.02067-0.020672-0.02067-0.013938 0-0.021188-0.0072-0.021188-0.02119 0.01792 0 0.026872-0.0045 0.026872-0.01447 0-0.01-0.00169-0.02112-0.00568-0.03307-0.00398-0.01195-0.00731-0.02312-0.0093-0.03307 0-0.01 0.00725-0.01499 0.021188-0.01499-0.013938-0.03584-0.035167-0.06329-0.063045-0.0832-0.025887-0.02191-0.054439-0.03981-0.0863-0.05374-0.029869-0.01593-0.060048-0.03102-0.089917-0.04496-0.027878-0.01593-0.050808-0.04278-0.068729-0.08062-0.013938-4e-3 -0.027919-0.0029-0.041858 0.0031-0.011949 4e-3 -0.028739-0.0011-0.050643-0.01499zm-2.4014 0.60306c0.045799 0.01593 0.089442 0.0467 0.13126 0.0925 0.041817 0.04381 0.068075 0.10254 0.078031 0.17622-0.081642 0.03385-0.16833 0.07017-0.25993 0.108-0.091598 0.03584-0.1794 0.05826-0.26303 0.06821 0.00996-0.05376 0.026748-0.09911 0.050643-0.13694 0.023894-0.03983 0.050746-0.07563 0.080615-0.10749 0.03186-0.03385 0.063741-0.06573 0.095601-0.0956 0.031861-0.03186 0.06093-0.06707 0.086816-0.1049z" style="font-variant-caps:normal;font-variant-east-asian:normal;font-variant-ligatures:normal;font-variant-numeric:normal"/>
  <path d="m19.952 21.225c-0.11948 0.11748-0.21793 0.22319-0.29559 0.31678-0.07567 0.09359-0.14446 0.1859-0.20619 0.2775-0.06173 0.08961-0.12329 0.18414-0.185 0.2837-0.05974 0.09757-0.13356 0.21001-0.22118 0.33745-0.01394-0.04381-0.024-0.09418-0.02997-0.15193-4e-3 -0.05974-0.0085-0.12239-0.01447-0.1881-4e-3 -0.06571-0.01012-0.1328-0.01809-0.2005-6e-3 -0.0677-0.01774-0.13146-0.03566-0.1912-0.01593-0.06173-0.03997-0.11713-0.07183-0.16692-0.02987-0.05177-0.06959-0.0926-0.11937-0.12247 4e-3 -0.01792 0.0018-0.03582-0.0062-0.05374-6e-3 -0.01792-0.01714-0.03523-0.03307-0.05116-0.01394-0.01792-0.03184-0.0319-0.05374-0.04186-0.01991-0.01195-0.04284-0.01979-0.06873-0.02377-0.02191 0.02191-0.04483 0.04202-0.06873 0.05994-0.0239 0.01593-0.0435 0.03886-0.05943 0.06873-0.01197 0.02589-0.01921 0.0628-0.02119 0.11059 0 0.0458 0.0022 0.09617 0.0062 0.15193 6e-3 0.05576 0.01211 0.11449 0.01809 0.17622 8e-3 0.05974 0.01189 0.11677 0.01189 0.17053 0 0.05576-0.0022 0.11338-0.0062 0.17312-4e-3 0.05974-6.62e-4 0.11736 0.0093 0.17312 4e-3 0.02589 0.01072 0.04882 0.02067 0.06873 0.01193 0.01792 0.01696 0.03915 0.01499 0.06305-2e-3 0.04779 8.21e-4 0.09927 0.0088 0.15503 8e-3 0.05576 0.01803 0.11279 0.02997 0.17053 0.01394 0.05775 0.02681 0.11648 0.03876 0.17622 0.01394 0.05775 0.02511 0.11145 0.03307 0.16123 8e-3 0 0.0158 0.0061 0.02377 0.01809 8e-3 0.01195 0.01521 0.02652 0.02119 0.04444 6e-3 0.01792 0.0099 0.03804 0.01188 0.05994 4e-3 0.02191 4e-3 0.04262 0 0.06253 0.01593 4e-3 0.0288 0.01182 0.03876 0.02377 0.01195 0.01 0.0226 0.02223 0.03256 0.03617 0.01195 0.01195 0.02312 0.02482 0.03307 0.03876 0.01 0.01394 0.02172 0.02511 0.03566 0.03307 0.03186 0.02192 0.06596 0.03368 0.1018 0.03566 0.03584 4e-3 0.07053-0.0022 0.10439-0.01809 0.03385-0.01593 0.06462-0.03997 0.0925-0.07183 0.02987-0.03186 0.05391-0.07158 0.07183-0.11937-2e-3 -0.01593-0.0031-0.0288-0.0031-0.03876 2e-3 -0.01195 0.0042-0.0226 0.0062-0.03256 2e-3 -0.01 0.0031-0.02001 0.0031-0.02997 0-0.01-0.0022-0.02283-0.0062-0.03876 0.04381-0.03983 0.08686-0.08791 0.12868-0.14366 0.04379-0.05775 0.06731-0.11818 0.07131-0.1819 0.01193 0 0.02029-0.0044 0.02429-0.0124 6e-3 -8e-3 0.01099-0.0158 0.01499-0.02377 6e-3 -8e-3 0.0116-0.0147 0.01757-0.02067 6e-3 -6e-3 0.01492-0.0093 0.02687-0.0093 0.04182-0.09956 0.09271-0.19299 0.15245-0.2806 0.06173-0.08961 0.12549-0.17519 0.1912-0.25683 0.06571-0.08363 0.13118-0.16308 0.19689-0.23874 0.06571-0.07567 0.12555-0.14949 0.17932-0.22118-2e-3 -0.03783 0.0058-0.06972 0.02377-0.0956 0.01792-0.02788 0.03131-0.05865 0.03927-0.0925-0.01196 6e-3 -0.01921 6e-3 -0.02119 0 0-6e-3 0.0011-0.01381 0.0031-0.02377 2e-3 -0.01 0.0031-0.02112 0.0031-0.03307 2e-3 -0.01394-2.28e-4 -0.02511-0.0062-0.03307-0.01195-0.03186-0.0209-0.05538-0.02687-0.07131-6e-3 -0.01593-0.01099-0.0288-0.01499-0.03876-4e-3 -0.01-9e-3 -0.02002-0.01499-0.02997-4e-3 -0.01195-0.01072-0.02985-0.02067-0.05374-0.02788 4e-3 -0.0497 0.0046-0.06563 0.0026-0.01593-4e-3 -0.03102-0.0085-0.04496-0.01447l-0.04186-0.01809c-0.01394-6e-3 -0.03406-0.011-0.05994-0.01499zm-2.2014 0.03307c-0.01593 0.02389-0.03664 0.04239-0.06253 0.05633-0.02389 0.01394-0.04964 0.02733-0.07752 0.03927-0.02588 0.01195-0.05274 0.02482-0.08062 0.03876-0.02588 0.01394-0.04771 0.03073-0.06563 0.05064-0.04978 0.01195-0.09394 0.02874-0.13177 0.05064-0.03784 0.02191-0.07475 0.04594-0.11059 0.07183-0.03584 0.02589-0.07335 0.04993-0.11317 0.07183-0.03783 0.02191-0.08199 0.0387-0.13178 0.05064-0.01195 0.01792-0.02652 0.0336-0.04444 0.04754-0.01792 0.01195-0.03582 0.02533-0.05374 0.03927-0.01792 0.01195-0.03523 0.02541-0.05116 0.04134s-0.02769 0.03494-0.03566 0.05684c-0.01-6e-3 -0.02113-0.0088-0.03307-0.0088-0.03385 0.03783-0.06855 0.07585-0.10439 0.11369-0.03385 0.03584-0.06684 0.07446-0.0987 0.11627-0.03186 0.03983-0.06041 0.08288-0.0863 0.12867-0.02588 0.04381-0.04771 0.09248-0.06563 0.14624-2e-3 0.07168-2.91e-4 0.14721 0.0057 0.22686 8e-3 0.07766 0.02195 0.15318 0.04186 0.22686 0.02191 0.07368 0.05098 0.14358 0.08682 0.20929 0.03783 0.06571 0.0854 0.12052 0.14314 0.16433 0.03983 0.01 0.07171 0.02675 0.0956 0.05064 0.0239 0.02191 0.04683 0.04595 0.06873 0.07183 0.11151 0.03783 0.2329 0.07082 0.36432 0.0987 0.13142 0.02587 0.26006 0.04044 0.38551 0.04444 0.0239-0.01 0.04853-0.01559 0.07441-0.01757 0.02788-4e-3 0.05473-0.0062 0.08062-0.0062 0.02788 0 0.05414 0.0011 0.07803 0.0031 0.02588 2e-3 0.04771 2e-3 0.06563 0l0.11937-0.08992c0.03983-0.03186 0.07674-0.06433 0.11059-0.09819 6e-3 -0.03982 0.0032-0.07392-0.0088-0.1018-0.01-0.02987-0.02505-0.05561-0.04496-0.07752-0.01792-0.02191-0.03863-0.04313-0.06253-0.06304-0.0219-0.0219-0.04202-0.04432-0.05994-0.06821-0.17523-2e-3 -0.35254-0.0081-0.53175-0.01809-0.17722-0.01195-0.34558-0.04213-0.50488-0.08992-0.01394-0.02788-0.02792-0.05473-0.04186-0.08061-0.01193-0.02788-0.01977-0.06035-0.02377-0.09819 0.01394-0.01792 0.02681-0.03582 0.03876-0.05374s0.01809-0.04418 0.01809-0.07803c0.03584-0.03584 0.07165-0.07164 0.10749-0.10749 0.03584-0.03783 0.07275-0.07364 0.11059-0.10749 0.03983-0.03385 0.08177-0.06462 0.12557-0.0925 0.0458-0.02788 0.09617-0.0497 0.15193-0.06563 0.03186-0.03584 0.06877-0.06662 0.11059-0.0925 0.04381-0.02788 0.08967-0.05192 0.13746-0.07183 0.04978-0.01991 0.10067-0.03781 0.15245-0.05374 0.05376-0.01593 0.11139-0.03213 0.17312-0.04806 0.05177-0.01394 0.09874-0.04138 0.14056-0.0832 0.04381-0.04381 0.07347-0.09078 0.0894-0.14056 0.01591-0.05177 0.01423-0.10045-0.0057-0.14624-0.01991-0.04779-0.06577-0.083-0.13746-0.1049 2e-3 -0.01394 0.0048-0.02348 0.0088-0.02946 4e-3 -6e-3 0.0012-0.01433-0.0088-0.02429-0.02788-4e-3 -0.04911-0.01071-0.06305-0.02067-0.01195-0.01195-0.02763-0.01587-0.04754-0.01188 2e-3 -4e-3 0.0059-0.01234 0.01189-0.02429 8e-3 -0.01195 4e-3 -0.01868-0.01189-0.02067-6e-3 0.01394-0.01211 0.02008-0.01809 0.01809-4e-3 -2e-3 -0.0096-0.0059-0.01757-0.01188-6e-3 -8e-3 -0.01322-0.01521-0.02119-0.02119-8e-3 -6e-3 -0.01803-0.0077-0.02997-0.0057-0.01792 6e-3 -0.03752 0.0116-0.05943 0.01757-0.02191 4e-3 -0.03922-0.0016-0.05116-0.01757z" style="font-variant-caps:normal;font-variant-east-asian:normal;font-variant-ligatures:normal;font-variant-numeric:normal"/>
  <path d="m7.0786 20.728c-0.091598 0.01-0.16823 0.04013-0.22996 0.08992-0.061729 0.04978-0.11765 0.1074-0.16743 0.17312-0.04779 0.06372-0.095353 0.1297-0.14314 0.1974-0.04779 0.0677-0.1026 0.12533-0.16433 0.17312-0.00996-0.01593-0.031185-0.0288-0.063045-0.03876-0.029869-0.01195-0.058422-0.01587-0.086299-0.01188-0.023894 0.05376-0.044015 0.11139-0.059945 0.17312-0.013938 0.05974-0.026809 0.12239-0.038757 0.1881-0.011949 0.06372-0.025929 0.12859-0.041858 0.1943-0.013938 0.06571-0.034059 0.12947-0.059945 0.1912 0.00198 0.01195 0.0031 0.02763 0.0031 0.04754 0.00198 0.01792 8.732e-4 0.03582-0.0031 0.05374-0.00198 0.01593-0.00591 0.02991-0.011885 0.04186-0.00398 0.01-0.010713 0.01217-0.020672 0.0062 0.013938 0.03584 0.016751 0.07053 0.00878 0.10439-0.00597 0.03186-0.013814 0.06545-0.02377 0.10129-0.00996 0.03385-0.018907 0.06965-0.026872 0.10749-0.00597 0.03584-0.00206 0.07608 0.011885 0.11989h-0.033073c0.00996 0.01593 0.018907 0.03272 0.026872 0.05064 0.00796 0.01591 0.017431 0.02265 0.027389 0.02067-0.00597 0.01593-0.00819 0.02991-0.0062 0.04186 0.00398 0.01195 0.0079 0.02423 0.011885 0.03617 0.00398 0.01 0.00679 0.02172 0.00878 0.03566 0.00198 0.01195 2.91e-4 0.02704-0.00568 0.04496 0.025887-2e-3 0.041569 0.0058 0.047542 0.02377 0.00597 0.01593 0.012113 0.03272 0.018087 0.05064 0.021905-2e-3 0.037586 2.28e-4 0.047542 0.0062 0.00996 6e-3 0.019423 0.0116 0.027388 0.01757 0.00796 6e-3 0.016915 0.01099 0.026872 0.01499 0.00996 6e-3 0.024529 0.0071 0.044441 0.0031 0.015931-0.01 0.028801-0.02113 0.038758-0.03307 0.011949-0.01195 0.034286-0.01476 0.066146-0.0088 0.039825-0.05177 0.069488-0.10266 0.0894-0.15244 0.021905-0.04978 0.037586-0.11414 0.047542-0.19379 0.00597-2e-3 0.0093-0.0059 0.0093-0.01188 0.00198-6e-3 0.00591-0.01043 0.011885-0.0124 0.043808 0.03983 0.08242 0.07503 0.11627 0.1049 0.033852 0.02788 0.070763 0.05473 0.11059 0.08062 0.039825 0.0239 0.086796 0.04853 0.14056 0.07441 0.053764 0.02589 0.12315 0.05496 0.20877 0.08682 0.17324 0.06571 0.31585 0.11158 0.42736 0.13746 0.11151 0.0259 0.20323 0.02478 0.27492-0.0031 0.019913-2e-3 0.035595-0.0087 0.047542-0.02067 0.013938-0.01195 0.026218-0.02533 0.036174-0.03927l0.029456-0.04134c0.00996-0.01394 0.022236-0.02622 0.036174-0.03617-0.00996-2e-3 -0.020016-2e-3 -0.029972 0-0.00797 0-0.012996-0.0039-0.014986-0.01188 0.013941-0.01593 0.021783-0.03664 0.02377-0.06253 0.00398-0.02788 0.00287-0.05695-0.0031-0.08682s-0.015518-0.05953-0.029456-0.0894-0.03184-0.05613-0.053743-0.07803c-0.053764-6e-3 -0.096814-0.01099-0.12867-0.01499-0.03186-4e-3 -0.061522-0.0079-0.0894-0.01189-0.027878-6e-3 -0.059759-0.0127-0.095601-0.02067-0.033852-0.01-0.081931-0.02172-0.14366-0.03566-0.061729-0.01394-0.1104-0.02622-0.14624-0.03617-0.033852-0.01-0.065732-0.02172-0.095602-0.03566-0.027877-0.01593-0.058649-0.03494-0.092501-0.05684-0.03186-0.0219-0.077721-0.05097-0.13746-0.08682 0.00398-0.01195 0.00116-0.01757-0.00878-0.01757-0.00796 0-0.011885-0.0039-0.011885-0.01188 0.07965-0.03385 0.16804-0.06514 0.26562-0.09302 0.097572-0.02987 0.18929-0.06456 0.27492-0.10439 0.087616-0.04182 0.16092-0.09441 0.22066-0.15813 0.061729-0.06571 0.096939-0.1513 0.1049-0.25683 0-0.01593-0.00111-0.0288-0.0031-0.03876-0.00198-0.01195-0.0048-0.02201-0.00878-0.02997-0.00198-0.01-0.00421-0.01891-0.0062-0.02687 0-0.01 0.00222-0.02112 0.0062-0.03307-0.01792-0.03385-0.03412-0.07076-0.048059-0.11059-0.013938-0.03983-0.029028-0.07844-0.044958-0.11627-0.013938-0.03983-0.03073-0.07674-0.050643-0.11059-0.01792-0.03584-0.040852-0.06661-0.06873-0.0925v-0.04496l-0.047542-0.02997c-0.013944-0.011956-0.029034-0.022611-0.044964-0.032566-0.037834-0.057747-0.086507-0.10583-0.14624-0.14366-0.059738-0.039825-0.11344-0.076736-0.16123-0.11059zm-1.0692 0.0093c-0.07766 0-0.15762 5e-3 -0.23926 0.01499-0.081642 0.01-0.1622 0.0195-0.24185 0.02946-0.057747 8e-3 -0.11367 0.01632-0.16743 0.02429-0.053764 6e-3 -0.10636 0.011-0.15813 0.01499-0.00996-0.01195-0.023937-0.02423-0.041858-0.03617-0.01792-0.01394-0.049802-0.01956-0.095601-0.01757l-0.033073 0.01757c-0.00398 8e-3 -0.0079 0.01521-0.011885 0.02119-0.00198 6e-3 -0.00761 0.01995-0.017571 0.04186-0.10554 6e-3 -0.20451 0.01493-0.29611 0.02687-0.083633 8e-3 -0.1653 0.0147-0.24495 0.02067-0.079651 6e-3 -0.15688 0.0088-0.23254 0.0088h-0.05116c-0.01593 0-0.031612-5.82e-4 -0.047542-0.0026h-0.044959l-0.011885 0.05374c-0.00597 6e-3 -0.012113 0.01381-0.018087 0.02377-0.00597 8e-3 -0.010488 0.02194-0.01447 0.04186 0 0.03783 0.00392 0.07082 0.011885 0.0987 0.00797 0.02788 0.016915 0.05362 0.026872 0.07751 0.00597 0.01593 0.011004 0.03102 0.014986 0.04496 0.00597 0.01195 0.0099 0.02541 0.011885 0.04134v0.03307l0.032556 0.0088c0.00996 2e-3 0.021124 0.01427 0.033073 0.03617l0.020672 0.02377c0.021905 0.01195 0.043133 0.01977 0.063046 0.02377 0.019912 2e-3 0.037813 0.0031 0.053743 0.0031h0.15193c0.013938-6e-3 0.032949-0.0088 0.056844-0.0088h0.11369c0.013938-2e-3 0.029028-7e-3 0.044959-0.01499 0.00796 2e-3 0.020836 0.0031 0.038758 0.0031 0.023894 0 0.048528-0.0033 0.074414-0.0093 0.011949-2e-3 0.023117-0.0031 0.033073-0.0031 0.011949-2e-3 0.024818-0.0026 0.038757-0.0026-0.00198 0.01195-0.00702 0.02593-0.014986 0.04186-0.00597 0.01593-0.012705 0.03161-0.020669 0.04754-0.011946 0.02589-0.023117 0.05163-0.033073 0.07751-0.00996 0.02389-0.014986 0.04904-0.014986 0.07493-0.00398 2e-3 -0.012933 0.0087-0.026872 0.02067l-0.032556 0.03307c-0.013938 0.05177-0.030138 0.10266-0.048059 0.15245-0.01792 0.04978-0.036932 0.09845-0.056844 0.14624-0.035843 0.08961-0.068316 0.18192-0.098185 0.2775-0.02987 0.09357-0.043257 0.21046-0.039274 0.34985 0.00996 0.01394 0.017203 0.02962 0.021188 0.04754 0.00597 0.01792 0.012113 0.03804 0.018087 0.05995 0.00597 0.02788 0.012705 0.05473 0.020672 0.08061 0.00996 0.02588 0.022828 0.04992 0.038758 0.07183 0 8e-3 -0.00111 0.02143-0.0031 0.04134l0.033073 0.01809c0.011949 8e-3 0.02763 0.01521 0.047542 0.02119 0.00398 4e-3 0.00901 0.0068 0.014986 0.0088 0.00597 0 0.011004 0.0022 0.014986 0.0062 0.00996 0.01393 0.021124 0.02287 0.033073 0.02687 0.011949 6e-3 0.027037 0.0127 0.044959 0.02067 0.00198 4e-3 0.00983 0.01293 0.02377 0.02687l0.041858 0.0031c0.083633 0 0.14296-0.02293 0.1788-0.06873 0.033852-0.03983 0.045021-0.09575 0.033073-0.16743l-0.029972-0.03566c-0.013938-2e-3 -0.028512-0.0098-0.044442-0.02377-0.00398-4e-3 -0.00901-0.0073-0.014986-0.0093-0.00597-2e-3 -0.011004-0.0048-0.014986-0.0088-0.00398-0.01195-0.00901-0.02201-0.014986-0.02997-0.00597-8e-3 -0.012113-0.0158-0.018087-0.02377-0.00398-0.01-0.00509-0.02002-0.0031-0.02997 0.00198-0.01195 0.00532-0.02482 0.0093-0.03876 0.00198-0.01195 0.0037-0.02371 0.00568-0.03566s0.0031-0.02423 0.0031-0.03617c0.00796-0.01195 0.014102-0.02874 0.018087-0.05064-0.00198-6e-3 -8.731e-4 -0.01382 0.0031-0.02377 0.00398-0.01195 0.0079-0.02312 0.011885-0.03307 0.00996-0.0239 0.017799-0.04853 0.02377-0.07441 0.00797-0.01 0.012996-0.01891 0.014986-0.02687 0.00398-8e-3 0.012933-0.01913 0.026872-0.03307l0.011885-0.04496c0.00996-0.02788 0.020608-0.06146 0.032556-0.10129 0.013938-0.03983 0.036277-0.07674 0.066146-0.11059 0.00996-0.04182 0.022828-0.07873 0.038757-0.11059 0.015931-0.03385 0.035533-0.06854 0.059428-0.10439 0.013938-0.04978 0.029028-0.09453 0.044958-0.13436 0.015931-0.04182 0.032722-0.08265 0.050643-0.12247 0.01792-0.03983 0.03523-0.08006 0.05116-0.11989 0.015931-0.03983 0.033831-0.08517 0.053744-0.13694 0.035843-4e-3 0.075565-0.0084 0.11937-0.0124 0.043808-6e-3 0.089669-0.0116 0.13746-0.01757 0.065712-0.01 0.13339-0.01891 0.20309-0.02687 0.069694-8e-3 0.13405-0.01188 0.19379-0.01188h0.041858c0.011949 0 0.029256 5.82e-4 0.05116 0.0026 0.011948-4e-3 0.022601-0.0068 0.032556-0.0088 0.00996-4e-3 0.018907-0.0079 0.026872-0.01188 0.013938-6e-3 0.026217-0.0099 0.036173-0.01189 0.00996-4e-3 0.02453-0.0062 0.044442-0.0062h0.033073l0.029973-0.03876c0.011949-8e-3 0.021489-0.01581 0.029455-0.02377l0.014986-0.02997c0.00797-0.06969-0.00269-0.12229-0.032556-0.15813-0.027877-0.03584-0.056947-0.06602-0.086816-0.08992-0.01593-0.01195-0.02991-0.02371-0.041858-0.03566s-0.022008-0.02482-0.029972-0.03876l-0.035657-0.02687c-0.027877-4e-3 -0.056947-0.0068-0.086816-0.0088s-0.061233-0.0031-0.095085-0.0031zm3.3719 0.0057c-0.061729 0.05376-0.13111 0.10355-0.20877 0.14934-0.075668 0.0458-0.15171 0.09055-0.22738 0.13436-0.075668 0.04381-0.14838 0.08967-0.21807 0.13746-0.069694 0.04779-0.12902 0.1009-0.1788 0.15865-0.021905 4e-3 -0.040321 0.01182-0.05426 0.02377-0.013938 0.01-0.02681 0.02172-0.038757 0.03566-0.00996 0.01394-0.020608 0.02903-0.032556 0.04496-0.00996 0.01394-0.023937 0.02792-0.041858 0.04186-0.10952 0.08562-0.20405 0.18519-0.2837 0.29869-0.07766 0.11151-0.14756 0.2329-0.20929 0.36432 0.00398 0.02788 0.00287 0.05081-0.0031 0.06873s-0.00878 0.03804-0.00878 0.05994c0.00398 4e-3 0.00901 0.0079 0.014986 0.01188 0.00597 2e-3 0.00767 0.0076 0.00568 0.01757 0.00996 0.20908 0.065877 0.37352 0.16743 0.49299 0.10155 0.11947 0.24195 0.18324 0.42116 0.1912 0.025887 2e-3 0.053847-8.2e-4 0.083716-0.0088 0.029868-8e-3 0.058938-0.0124 0.086816-0.0124h0.080615c0.03186 0 0.067662-0.0028 0.10749-0.0088 0.00597-4e-3 0.0099-9e-3 0.011885-0.01499 0.00398-6e-3 0.010716-0.0077 0.020672-0.0057 0.025887-2e-3 0.049927-0.0053 0.07183-0.0093 0.021905-4e-3 0.043725-0.0079 0.065629-0.01188 0.021905-4e-3 0.044835-0.0068 0.06873-0.0088s0.052965-0.0031 0.086816-0.0031c0.077659-0.02987 0.15599-0.05561 0.23564-0.07752 0.081642-0.02389 0.16271-0.04572 0.24236-0.06563 0.07965-0.0219 0.15688-0.04372 0.23254-0.06563 0.075668-0.02389 0.14668-0.05297 0.21239-0.08682 0.0677-0.03385 0.12814-0.07358 0.1819-0.11937 0.05377-0.04779 0.09963-0.10593 0.13746-0.17363 4e-3 -0.02788 0.0023-0.0514-0.0057-0.07131s-0.01018-0.04617-0.0062-0.07803c-0.03385-0.01593-0.06241-0.03553-0.0863-0.05943l-0.07183-0.07183c-0.02389-0.02589-0.04904-0.04993-0.07493-0.07183-0.02589-0.02389-0.05666-0.0435-0.0925-0.05943-0.03783-0.0219-0.078666-0.04373-0.12247-0.06563-0.043808-0.02389-0.086341-0.04682-0.12816-0.06873-0.041817-0.0219-0.082055-0.04372-0.11989-0.06563-0.037834-0.02191-0.069715-0.04313-0.095601-0.06305l-0.24753 0.16433c-0.00398 0.01991-0.010123 0.0367-0.018087 0.05064-0.00797 0.01394-0.012996 0.03184-0.014986 0.05374 0.00797 4e-3 0.012996 4e-3 0.014986 0 0.00398-4e-3 0.0062-0.0079 0.0062-0.01188 0.00198-4e-3 0.0037-0.0079 0.00568-0.01188 0.00198-4e-3 0.00813-4e-3 0.018087 0 0.013938 0.01 0.020672 0.02283 0.020672 0.03876s-0.00673 0.02991-0.020672 0.04186c0.00398 0.04779 0.015745 0.08692 0.035657 0.11679 0.021905 0.02987 0.048755 0.05339 0.080615 0.07131-0.00796 0.01-0.018616 0.02002-0.032556 0.02997-0.011949 8e-3 -0.011949 0.01802 0 0.02997 0.027878 8e-3 0.059759 0.01913 0.095601 0.03307-0.12147 0.03186-0.24115 0.06374-0.35863 0.0956-0.11748 0.02987-0.2439 0.05169-0.37931 0.06563-0.00996 4e-3 -0.016097 0.01072-0.018087 0.02067-0.00198 0.01-0.00702 0.0178-0.014986 0.02377-0.065712-0.01394-0.13118-0.01786-0.19689-0.01188-0.065712 4e-3 -0.13621 4e-3 -0.21187 0-0.00398-0.01-0.010123-0.01891-0.018087-0.02687-0.00597-8e-3 -0.011004-0.01691-0.014986-0.02687 0.037834-0.06571 0.083695-0.13228 0.13746-0.19999 0.053764-0.06969 0.11139-0.13627 0.17312-0.19999 0.061729-0.06571 0.12549-0.12777 0.1912-0.18552 0.067703-0.05775 0.13428-0.11034 0.19999-0.15813 0.065712-0.04779 0.13169-0.08973 0.1974-0.12557 0.067703-0.03783 0.13317-0.07253 0.19689-0.10439 0.065712-0.03186 0.12777-0.06152 0.18552-0.0894 0.059738-0.02987 0.11344-0.06116 0.16123-0.09302-0.00398-0.01593-0.00398-0.02658 0-0.03256 0.00597-8e-3 0.00878-0.01802 0.00878-0.02997 0-0.01394-0.00673-0.02119-0.020672-0.02119-0.013938 0-0.021188-0.0067-0.021188-0.02067 0.01792 0 0.026872-5e-3 0.026872-0.01499 0-0.01-0.00169-0.02061-0.00568-0.03256-0.00398-0.01195-0.00731-0.02312-0.0093-0.03307 0-0.01 0.00725-0.01499 0.021188-0.01499-0.013938-0.03584-0.035167-0.0638-0.063045-0.08372-0.025887-0.0219-0.054439-0.0398-0.0863-0.05374-0.029869-0.01593-0.060048-0.03102-0.089917-0.04496-0.027878-0.01593-0.050808-0.04278-0.068729-0.08061-0.013938-4e-3 -0.027919-0.0029-0.041858 0.0031-0.011949 4e-3 -0.028739-0.0011-0.050643-0.01499zm-2.4014 0.60358c0.045799 0.01593 0.089442 0.0467 0.13126 0.0925 0.041817 0.04381 0.068075 0.10254 0.078031 0.17622-0.081642 0.03385-0.16833 0.06965-0.25993 0.10749-0.091598 0.03584-0.1794 0.05877-0.26303 0.06873 0.00996-0.05376 0.026748-0.09963 0.050643-0.13746 0.023894-0.03983 0.050746-0.07563 0.080615-0.10749 0.03186-0.03385 0.063741-0.06573 0.095601-0.0956 0.031861-0.03186 0.06093-0.06655 0.086816-0.10439z" fill="#daa520" style="font-variant-caps:normal;font-variant-east-asian:normal;font-variant-ligatures:normal;font-variant-numeric:normal"/>
  <path d="m19.952 20.775c-0.11948 0.11748-0.21793 0.22267-0.29559 0.31626-0.07567 0.09359-0.14446 0.18642-0.20619 0.27802-0.06173 0.08961-0.12329 0.18414-0.185 0.2837-0.05974 0.09757-0.13356 0.21001-0.22118 0.33745-0.01394-0.04381-0.024-0.0947-0.02997-0.15244-4e-3 -0.05974-0.0085-0.12239-0.01447-0.1881-4e-3 -0.06571-0.01012-0.13228-0.01809-0.19999-6e-3 -0.0677-0.01774-0.13146-0.03566-0.1912-0.01593-0.06173-0.03997-0.11765-0.07183-0.16743-0.02987-0.05177-0.06959-0.0926-0.11937-0.12247 4e-3 -0.01792 0.0018-0.03582-0.0062-0.05374-6e-3 -0.01792-0.01714-0.03471-0.03307-0.05064-0.01394-0.01792-0.03184-0.0319-0.05374-0.04186-0.01991-0.01195-0.04284-0.01979-0.06873-0.02377-0.02191 0.02191-0.04483 0.04151-0.06873 0.05943-0.0239 0.01593-0.0435 0.03886-0.05943 0.06873-0.01197 0.02589-0.01921 0.0628-0.02119 0.11059 0 0.0458 0.0022 0.09669 0.0062 0.15245 6e-3 0.05576 0.01211 0.11449 0.01809 0.17622 8e-3 0.05974 0.01189 0.11625 0.01189 0.17002 0 0.05575-0.0022 0.1139-0.0062 0.17363-4e-3 0.05974-6.62e-4 0.11736 0.0093 0.17312 4e-3 0.02589 0.01072 0.04882 0.02067 0.06873 0.01193 0.01792 0.01696 0.03863 0.01499 0.06253-2e-3 0.04779 8.21e-4 0.09979 0.0088 0.15555 8e-3 0.05576 0.01803 0.11227 0.02997 0.17002 0.01394 0.05775 0.02681 0.11648 0.03876 0.17622 0.01394 0.05775 0.02511 0.11145 0.03307 0.16123 8e-3 0 0.0158 0.0061 0.02377 0.01809 8e-3 0.01195 0.01521 0.02704 0.02119 0.04496 6e-3 0.01792 0.0099 0.03753 0.01188 0.05943 4e-3 0.02191 4e-3 0.04313 0 0.06304 0.01593 4e-3 0.0288 0.01182 0.03876 0.02377 0.01195 0.01 0.0226 0.02172 0.03256 0.03566 0.01195 0.01195 0.02312 0.02533 0.03307 0.03927 0.01 0.01394 0.02172 0.02459 0.03566 0.03256 0.03186 0.02192 0.06596 0.0342 0.1018 0.03617 0.03584 4e-3 0.07053-0.0022 0.10439-0.01809 0.03385-0.01593 0.06462-0.03997 0.0925-0.07183 0.02987-0.03186 0.05391-0.07158 0.07183-0.11937-2e-3 -0.01593-0.0031-0.0288-0.0031-0.03876 2e-3 -0.01195 0.0042-0.02312 0.0062-0.03307 2e-3 -0.01 0.0031-0.02002 0.0031-0.02997 0-0.01-0.0022-0.02283-0.0062-0.03876 0.04381-0.03983 0.08686-0.08739 0.12868-0.14314 0.04379-0.05775 0.06731-0.1187 0.07131-0.18242 0.01193 0 0.02029-0.0039 0.02429-0.01188 6e-3 -8e-3 0.01099-0.0158 0.01499-0.02377 6e-3 -8e-3 0.0116-0.01521 0.01757-0.02119 6e-3 -6e-3 0.01492-0.0088 0.02687-0.0088 0.04182-0.09956 0.09271-0.19299 0.15245-0.2806 0.06173-0.08961 0.12549-0.17519 0.1912-0.25683 0.06571-0.08363 0.13118-0.16359 0.19689-0.23926 0.06571-0.07567 0.12555-0.14897 0.17932-0.22066-2e-3 -0.03783 0.0058-0.06972 0.02377-0.0956 0.01792-0.02788 0.03131-0.05917 0.03927-0.09302-0.01196 6e-3 -0.01921 6e-3 -0.02119 0 0-6e-3 0.0011-0.01381 0.0031-0.02377 2e-3 -0.01 0.0031-0.02061 0.0031-0.03256 2e-3 -0.01394-2.28e-4 -0.02511-0.0062-0.03307-0.01195-0.03186-0.0209-0.0559-0.02687-0.07183-6e-3 -0.01593-0.01099-0.0288-0.01499-0.03876-4e-3 -0.01-9e-3 -0.02002-0.01499-0.02997-4e-3 -0.01195-0.01072-0.02985-0.02067-0.05374-0.02788 4e-3 -0.0497 0.0051-0.06563 0.0031-0.01593-4e-3 -0.03102-9e-3 -0.04496-0.01499l-0.04186-0.01809c-0.01394-6e-3 -0.03406-0.01049-0.05994-0.01447zm-2.2014 0.03256c-0.01593 0.02389-0.03664 0.04291-0.06253 0.05684-0.02389 0.01394-0.04964 0.02681-0.07752 0.03876-0.02588 0.01195-0.05274 0.02482-0.08062 0.03876-0.02588 0.01394-0.04771 0.03125-0.06563 0.05116-0.04978 0.01195-0.09394 0.02874-0.13177 0.05064-0.03784 0.02191-0.07475 0.04594-0.11059 0.07183-0.03584 0.02589-0.07335 0.04941-0.11317 0.07131-0.03783 0.02191-0.08199 0.0387-0.13178 0.05064-0.01195 0.01792-0.02652 0.03412-0.04444 0.04806-0.01792 0.01195-0.03582 0.02482-0.05374 0.03876-0.01792 0.01195-0.03523 0.02593-0.05116 0.04186s-0.02769 0.03494-0.03566 0.05684c-0.01-6e-3 -0.02113-0.0088-0.03307-0.0088-0.03385 0.03783-0.06855 0.07534-0.10439 0.11317-0.03385 0.03584-0.06684 0.07497-0.0987 0.11679-0.03186 0.03983-0.06041 0.08236-0.0863 0.12816-0.02588 0.04381-0.04771 0.09248-0.06563 0.14624-2e-3 0.07169-2.91e-4 0.14773 0.0057 0.22738 8e-3 0.07766 0.02195 0.15318 0.04186 0.22686 0.02191 0.07368 0.05098 0.14306 0.08682 0.20877 0.03783 0.06571 0.0854 0.12052 0.14314 0.16433 0.03983 0.01 0.07171 0.02726 0.0956 0.05116 0.0239 0.02191 0.04683 0.04543 0.06873 0.07131 0.11151 0.03783 0.2329 0.07082 0.36432 0.0987 0.13142 0.02587 0.26006 0.04096 0.38551 0.04496 0.0239-0.01 0.04853-0.01611 0.07441-0.01809 0.02788-4e-3 0.05473-0.0057 0.08062-0.0057 0.02788 0 0.05414 6.09e-4 0.07803 0.0026 0.02588 2e-3 0.04771 2e-3 0.06563 0l0.11937-0.0894c0.03983-0.03186 0.07674-0.06485 0.11059-0.0987 6e-3 -0.03982 0.0032-0.07341-0.0088-0.10129-0.01-0.02987-0.02505-0.05613-0.04496-0.07803-0.01792-0.02191-0.03863-0.04262-0.06253-0.06253-0.0219-0.0219-0.04202-0.04483-0.05994-0.06873-0.17523-2e-3 -0.35254-0.0081-0.53175-0.01809-0.17722-0.01195-0.34558-0.04161-0.50488-0.0894-0.01394-0.02788-0.02792-0.05473-0.04186-0.08062-0.01193-0.02788-0.01977-0.06087-0.02377-0.0987 0.01394-0.01792 0.02681-0.03582 0.03876-0.05374s0.01809-0.04366 0.01809-0.07751c0.03584-0.03584 0.07165-0.07164 0.10749-0.10749 0.03584-0.03783 0.07275-0.07363 0.11059-0.10749 0.03983-0.03385 0.08177-0.06462 0.12557-0.0925 0.0458-0.02788 0.09617-0.05022 0.15193-0.06614 0.03186-0.03584 0.06877-0.06662 0.11059-0.0925 0.04381-0.02788 0.08967-0.05192 0.13746-0.07183 0.04978-0.01991 0.10067-0.03781 0.15245-0.05374 0.05376-0.01593 0.11139-0.03161 0.17312-0.04754 0.05177-0.01394 0.09874-0.0419 0.14056-0.08372 0.04381-0.04381 0.07347-0.09078 0.0894-0.14056 0.01591-0.05177 0.01423-0.10044-0.0057-0.14624-0.01991-0.04779-0.06577-0.08248-0.13746-0.10439 2e-3 -0.01394 0.0048-0.024 0.0088-0.02997 4e-3 -6e-3 0.0012-0.01382-0.0088-0.02377-0.02788-4e-3 -0.04911-0.01123-0.06305-0.02119-0.01195-0.01195-0.02763-0.01587-0.04754-0.01188 2e-3 -4e-3 0.0059-0.01182 0.01189-0.02377 8e-3 -0.01195 4e-3 -0.01868-0.01189-0.02067-6e-3 0.01394-0.01211 0.01956-0.01809 0.01757-4e-3 -2e-3 -0.0096-0.0059-0.01757-0.01188-6e-3 -8e-3 -0.01322-0.0147-0.02119-0.02067-8e-3 -6e-3 -0.01803-0.0082-0.02997-0.0062-0.01792 6e-3 -0.03752 0.01211-0.05943 0.01809-0.02191 4e-3 -0.03922-0.0022-0.05116-0.01809z" fill="#daa520" style="font-variant-caps:normal;font-variant-east-asian:normal;font-variant-ligatures:normal;font-variant-numeric:normal"/>
 </g>
</svg>
