<?xml version="1.0" encoding="UTF-8" standalone="no"?>
<svg
   xmlns:dc="http://purl.org/dc/elements/1.1/"
   xmlns:cc="http://creativecommons.org/ns#"
   xmlns:rdf="http://www.w3.org/1999/02/22-rdf-syntax-ns#"
   xmlns:svg="http://www.w3.org/2000/svg"
   xmlns="http://www.w3.org/2000/svg"
   xmlns:sodipodi="http://sodipodi.sourceforge.net/DTD/sodipodi-0.dtd"
   xmlns:inkscape="http://www.inkscape.org/namespaces/inkscape"
   width="9mm"
   height="8.9986753mm"
   version="1.1"
   viewBox="0 0 9 8.9986753"
   id="svg28"
   sodipodi:docname="back1.svg"
   inkscape:version="1.0 (4035a4fb49, 2020-05-01)">
  <metadata
     id="metadata34">
    <rdf:RDF>
      <cc:Work
         rdf:about="">
        <dc:format>image/svg+xml</dc:format>
        <dc:type
           rdf:resource="http://purl.org/dc/dcmitype/StillImage" />
        <dc:title></dc:title>
      </cc:Work>
    </rdf:RDF>
  </metadata>
  <defs
     id="defs32" />
  <sodipodi:namedview
     fit-margin-bottom="0"
     fit-margin-right="0"
     fit-margin-left="0"
     fit-margin-top="0"
     inkscape:document-rotation="0"
     pagecolor="#ffffff"
     bordercolor="#666666"
     borderopacity="1"
     objecttolerance="10"
     gridtolerance="10"
     guidetolerance="10"
     inkscape:pageopacity="0"
     inkscape:pageshadow="2"
     inkscape:window-width="3440"
     inkscape:window-height="1377"
     id="namedview30"
     showgrid="false"
     inkscape:zoom="26.944617"
     inkscape:cx="7.8317868"
     inkscape:cy="19.018241"
     inkscape:window-x="-8"
     inkscape:window-y="-8"
     inkscape:window-maximized="1"
     inkscape:current-layer="g26" />
  <g
     transform="translate(-93.294496,-140.1615)"
     id="g26"
     inkscape:label="g26"
     style="display:inline">
    <g
       transform="matrix(0.25882537,0,0,-0.25882537,23.161227,452.66336)"
       stroke-width="2.2638"
       id="g20"
       style="display:inline">
      <g
         transform="matrix(1.28,0,0,1.28,305.74,1190)"
         stroke-width="2.2638"
         id="g14">
        <path
           d="m 0,0 c 0,-7.5 -6.083,-13.58 -13.584,-13.58 -7.5,0 -13.582,6.08 -13.582,13.58 0,7.503 6.082,13.582 13.582,13.582 C -6.083,13.582 0,7.503 0,0"
           fill="#212221"
           id="path12" />
      </g>
      <circle
         transform="scale(1,-1)"
         cx="288.35001"
         cy="-1189"
         r="14.435"
         fill="#676967"
         id="circle16" />
      <circle
         transform="scale(1,-1)"
         cx="288.35001"
         cy="-1190"
         r="14.435"
         fill="#141514"
         id="circle18" />
    </g>
    <path
       d="m 94.766011,145.45906 c 0.01376,0.13221 0.127028,0.27717 0.333936,0.44479 0.536808,0.43463 1.258744,0.49394 1.620375,0.13237 0.340364,-0.34041 0.312542,-0.51274 -0.157525,-0.98279 -0.341753,-0.3416 -0.502209,-0.37108 -1.031959,-0.18654 -0.538839,0.18776 -0.788561,0.37178 -0.76484,0.59222 z m 0.371723,-1.97318 c -0.03073,0.1863 0.112409,0.39554 0.430917,0.61869 0.549421,0.38482 1.021519,0.40987 1.358348,0.0733 0.725215,-0.72523 -0.100465,-1.54825 -1.176858,-1.17309 -0.376917,0.13137 -0.58173,0.29499 -0.612381,0.48132 z m 1.450276,3.36302 c -0.0096,0.0661 -0.0096,0.13072 0.0024,0.19287 0.08559,0.45054 0.991754,0.60875 1.606489,0.27972 0.76952,-0.41186 0.400433,-1.45027 -0.515363,-1.45027 -0.487462,0 -1.029078,0.51563 -1.093698,0.97775 z m 0.06022,-4.80493 c 0,0.46396 0.893733,0.66446 1.44539,0.45282 0.217259,-0.0834 0.323432,-0.30944 0.282251,-0.59977 -0.05609,-0.39422 -0.184087,-0.5881 -0.881929,-0.5362 -0.684819,0.051 -0.845673,0.34481 -0.845673,0.68315 z m 1.145461,2.50661 c 0,0.54245 0.16043,0.78201 0.866887,1.30165 1.020156,0.75028 1.244228,0.91393 1.831492,0.36688 0.39103,-0.36435 0.37264,-0.72764 0.29924,-2.00107 -0.0459,-0.79472 -0.14045,-1.53719 -0.21041,-1.65059 -0.20019,-0.32399 -0.714498,-0.24398 -1.524595,0.23822 -1.003647,0.59735 -1.26255,0.95611 -1.26255,1.74509 z"
       fill="#676967"
       style="display:inline;fill:#a98f2e;fill-opacity:1;stroke-width:1.28571;paint-order:markers fill stroke"
       id="path22" />
    <path
       d="m 94.766011,145.67763 c 0.01376,0.13221 0.127028,0.27717 0.333936,0.44479 0.536808,0.43463 1.258744,0.49394 1.620375,0.13237 0.340364,-0.34041 0.312542,-0.51274 -0.157525,-0.98279 -0.341753,-0.34161 -0.502209,-0.37109 -1.031959,-0.18654 -0.538839,0.18776 -0.788561,0.37177 -0.76484,0.59222 z m 0.371723,-1.97318 c -0.03073,0.1863 0.112409,0.39554 0.430917,0.61869 0.549421,0.38481 1.021519,0.40987 1.358348,0.0733 0.725215,-0.72523 -0.100465,-1.54825 -1.176858,-1.17309 -0.376917,0.13137 -0.58173,0.29499 -0.612381,0.48132 z m 1.450276,3.36302 c -0.0096,0.0661 -0.0096,0.13072 0.0024,0.19287 0.08559,0.45054 0.991754,0.60875 1.606489,0.27972 0.76952,-0.41186 0.400433,-1.45027 -0.515363,-1.45027 -0.487462,0 -1.029078,0.51563 -1.093698,0.97775 z m 0.06022,-4.80493 c 0,0.46396 0.893733,0.66446 1.44539,0.45282 0.217259,-0.0834 0.323432,-0.30944 0.282251,-0.59977 -0.05609,-0.39422 -0.184087,-0.5881 -0.881929,-0.5362 -0.684819,0.051 -0.845673,0.34481 -0.845673,0.68315 z m 1.145461,2.50661 c 0,0.54246 0.16043,0.78203 0.866887,1.30165 1.020156,0.75028 1.244228,0.91393 1.831492,0.36688 0.39103,-0.36435 0.37264,-0.72764 0.29924,-2.00107 -0.0459,-0.79471 -0.14045,-1.53719 -0.21041,-1.65059 -0.20019,-0.32398 -0.714498,-0.24398 -1.524595,0.23823 -1.003647,0.59735 -1.26255,0.95612 -1.26255,1.74509 z"
       fill="#a98f2e"
       stroke-linejoin="round"
       stroke-width="0.568115"
       style="display:inline;fill:#766420;fill-opacity:1;paint-order:markers fill stroke"
       id="path24" />
  </g>
</svg>
