<?xml version="1.0" encoding="UTF-8" standalone="no"?>
<svg
   xmlns:dc="http://purl.org/dc/elements/1.1/"
   xmlns:cc="http://creativecommons.org/ns#"
   xmlns:rdf="http://www.w3.org/1999/02/22-rdf-syntax-ns#"
   xmlns:svg="http://www.w3.org/2000/svg"
   xmlns="http://www.w3.org/2000/svg"
   xmlns:sodipodi="http://sodipodi.sourceforge.net/DTD/sodipodi-0.dtd"
   xmlns:inkscape="http://www.inkscape.org/namespaces/inkscape"
   width="9.0003252mm"
   height="8.9989996mm"
   version="1.1"
   viewBox="0 0 9.0003252 8.9989995"
   id="svg28"
   sodipodi:docname="forward0.svg"
   inkscape:version="1.0 (4035a4fb49, 2020-05-01)">
  <metadata
     id="metadata34">
    <rdf:RDF>
      <cc:Work
         rdf:about="">
        <dc:format>image/svg+xml</dc:format>
        <dc:type
           rdf:resource="http://purl.org/dc/dcmitype/StillImage" />
        <dc:title></dc:title>
      </cc:Work>
    </rdf:RDF>
  </metadata>
  <defs
     id="defs32" />
  <sodipodi:namedview
     fit-margin-bottom="0"
     fit-margin-right="0"
     fit-margin-left="0"
     fit-margin-top="0"
     inkscape:document-rotation="0"
     pagecolor="#ffffff"
     bordercolor="#666666"
     borderopacity="1"
     objecttolerance="10"
     gridtolerance="10"
     guidetolerance="10"
     inkscape:pageopacity="0"
     inkscape:pageshadow="2"
     inkscape:window-width="3440"
     inkscape:window-height="1377"
     id="namedview30"
     showgrid="false"
     inkscape:zoom="38.105443"
     inkscape:cx="17.006614"
     inkscape:cy="17.076503"
     inkscape:window-x="-8"
     inkscape:window-y="-8"
     inkscape:window-maximized="1"
     inkscape:current-layer="g26" />
  <g
     transform="translate(-93.294333,-140.16134)"
     id="g26">
    <g
       transform="matrix(0.25883472,0,0,-0.25883472,23.158531,452.67449)"
       stroke-width="2.2638"
       id="g10">
      <g
         transform="matrix(1.28,0,0,1.28,305.74,1190)"
         stroke-width="2.2638"
         id="g4">
        <path
           d="m 0,0 c 0,-7.5 -6.083,-13.58 -13.584,-13.58 -7.5,0 -13.582,6.08 -13.582,13.58 0,7.503 6.082,13.582 13.582,13.582 C -6.083,13.582 0,7.503 0,0"
           fill="#212221"
           id="path2" />
      </g>
      <circle
         transform="scale(1,-1)"
         cx="288.35001"
         cy="-1190.9"
         r="14.435"
         fill="#676967"
         id="circle6" />
      <circle
         transform="scale(1,-1)"
         cx="288.35001"
         cy="-1190"
         r="14.435"
         fill="#2b2d2b"
         id="circle8" />
    </g>
    <path
       d="m 100.82309,143.45115 c -0.0138,-0.13221 -0.12703,-0.27718 -0.33395,-0.4448 -0.536826,-0.43465 -1.258788,-0.49396 -1.620432,-0.13238 -0.340377,0.34042 -0.312553,0.51275 0.157531,0.98282 0.341766,0.34163 0.502227,0.37111 1.031991,0.18655 0.53886,-0.18777 0.78859,-0.37178 0.76487,-0.59224 z m -0.37174,1.97325 c 0.0307,-0.18631 -0.11241,-0.39555 -0.43093,-0.61871 -0.54944,-0.38482 -1.021555,-0.40988 -1.358396,-0.0733 -0.725241,0.72526 0.100469,1.54831 1.1769,1.17314 0.376936,-0.13138 0.581756,-0.29501 0.612406,-0.48134 z m -1.450325,-3.36315 c 0.0096,-0.0661 0.0096,-0.13072 -0.0024,-0.19287 -0.08559,-0.45055 -0.99179,-0.60877 -1.606547,-0.27973 -0.769548,0.41188 -0.400447,1.45033 0.515381,1.45033 0.48748,0 1.029116,-0.51565 1.093738,-0.97779 z m -0.06022,4.80512 c 0,-0.46398 -0.893765,-0.66449 -1.445443,-0.45285 -0.217266,0.0833 -0.323443,0.30946 -0.282261,0.5998 0.0561,0.39423 0.184094,0.58812 0.881962,0.53622 0.684843,-0.0511 0.845703,-0.34483 0.845703,-0.68317 z m -1.145503,-2.50671 c 0,-0.54248 -0.160436,-0.78205 -0.866918,-1.30169 -1.020192,-0.75031 -1.244273,-0.91396 -1.831553,-0.3669 -0.391049,0.36437 -0.372663,0.72767 -0.299259,2.00114 0.04585,0.79474 0.140455,1.53725 0.210426,1.65065 0.200192,0.324 0.714518,0.244 1.524645,-0.23824 1.003683,-0.59737 1.262595,-0.95615 1.262595,-1.74515 z"
       fill="#676967"
       style="fill:#74621f;fill-opacity:1;stroke-width:1.28575;paint-order:markers fill stroke"
       id="path22" />
    <path
       d="m 100.82309,143.64402 c -0.0138,-0.13222 -0.12703,-0.27719 -0.33395,-0.44481 -0.536826,-0.43465 -1.258788,-0.49396 -1.620432,-0.13238 -0.340377,0.34043 -0.312553,0.51276 0.157531,0.98283 0.341766,0.34162 0.502227,0.3711 1.031991,0.18655 0.53886,-0.18777 0.78859,-0.37179 0.76487,-0.59225 z m -0.37174,1.97324 c 0.0307,-0.18631 -0.11241,-0.39555 -0.43093,-0.61871 -0.54944,-0.38482 -1.021555,-0.40988 -1.358396,-0.0733 -0.725241,0.72525 0.100469,1.5483 1.1769,1.17313 0.376936,-0.13138 0.581756,-0.295 0.612406,-0.48133 z m -1.450325,-3.36314 c 0.0096,-0.0661 0.0096,-0.13072 -0.0024,-0.19288 -0.08559,-0.45055 -0.99179,-0.60876 -1.606547,-0.27973 -0.769548,0.41188 -0.400447,1.45033 0.515381,1.45033 0.48748,0 1.029116,-0.51565 1.093738,-0.97779 z m -0.06022,4.80511 c 0,-0.46398 -0.893765,-0.66449 -1.445443,-0.45284 -0.217266,0.0834 -0.323443,0.30945 -0.282261,0.59979 0.0561,0.39424 0.184094,0.58813 0.881962,0.53622 0.684843,-0.051 0.845703,-0.34482 0.845703,-0.68317 z m -1.145503,-2.5067 c 0,-0.54249 -0.160436,-0.78206 -0.866918,-1.3017 -1.020192,-0.75031 -1.244273,-0.91396 -1.831553,-0.3669 -0.391049,0.36437 -0.372663,0.72767 -0.299259,2.00114 0.04585,0.79474 0.140455,1.53725 0.210426,1.65065 0.200192,0.324 0.714518,0.244 1.524645,-0.23823 1.003683,-0.59738 1.262595,-0.95615 1.262595,-1.74516 z"
       fill="#a98f2e"
       stroke-linejoin="round"
       stroke-width="0.568135"
       style="display:inline;paint-order:markers fill stroke"
       id="path24" />
  </g>
</svg>
