<?xml version="1.0" encoding="UTF-8"?>
<svg width="15" height="14.999" version="1.1" viewBox="0 0 3.9687 3.9685" xmlns="http://www.w3.org/2000/svg" xmlns:xlink="http://www.w3.org/1999/xlink">
 <defs>
  <linearGradient id="linearGradient842" x1="33.842" x2="33.842" y1="67.353" y2="70.792" gradientTransform="rotate(180 32.123 69.073)" gradientUnits="userSpaceOnUse">
   <stop stop-color="#424242" offset="0"/>
   <stop stop-color="#585858" stop-opacity=".73725" offset="1"/>
  </linearGradient>
  <linearGradient id="linearGradient908" x1="32.255" x2="32.255" y1="67.617" y2="70.528" gradientTransform="matrix(.81879 0 0 .85029 5.8208 10.341)" gradientUnits="userSpaceOnUse">
   <stop stop-opacity=".37647" offset="0"/>
   <stop stop-color="#fff" stop-opacity="0" offset="1"/>
  </linearGradient>
  <linearGradient id="linearGradient1027" x1="33.842" x2="33.842" y1="67.353" y2="70.792" gradientUnits="userSpaceOnUse">
   <stop stop-opacity=".89676" offset="0"/>
   <stop stop-color="#282828" offset="1"/>
  </linearGradient>
  <linearGradient id="linearGradient868" x1="32.139" x2="32.139" y1="67.99" y2="69.999" gradientTransform="translate(5.5288e-6 .012026)" gradientUnits="userSpaceOnUse">
   <stop offset="0"/>
   <stop stop-color="#201f0d" offset="1"/>
  </linearGradient>
 </defs>
 <g transform="translate(-30.138 -67.088)">
  <g>
   <path d="m32.123 70.792c-0.94828 0-1.7197-0.77116-1.7197-1.7195 0-0.94835 0.77137-1.7198 1.7197-1.7198s1.7197 0.77143 1.7197 1.7198c0 0.94835-0.77137 1.7195-1.7197 1.7195" fill="url(#linearGradient1027)"/>
   <path d="m32.123 67.485c0.87552 0 1.5877 0.71199 1.5877 1.5876s-0.71218 1.5878-1.5877 1.5878-1.5877-0.71224-1.5877-1.5878 0.71218-1.5876 1.5877-1.5876" fill="url(#linearGradient842)"/>
   <path d="m32.123 70.423c-0.71687 0-1.3-0.6054-1.3-1.3499 0-0.7445 0.58313-1.3501 1.3-1.3501s1.3 0.60561 1.3 1.3501c0 0.7445-0.58313 1.3499-1.3 1.3499" fill="url(#linearGradient908)"/>
  </g>
  <path d="m31.773 67.892c-0.04464 0.0046-0.09359 0.04289-0.15019 0.11276-0.14676 0.18126-0.16678 0.42502-0.0447 0.54713 0.11494 0.11493 0.17313 0.10553 0.33185-0.05319 0.11535-0.1154 0.1253-0.16957 0.06299-0.34845-0.0634-0.18194-0.12553-0.26626-0.19997-0.25826zm0.66626 0.12552c-0.0629-0.01037-0.13356 0.03795-0.2089 0.1455-0.12993 0.18552-0.13839 0.34492-0.02474 0.45866 0.24488 0.24487 0.52278-0.03392 0.3961-0.39737-0.04436-0.12727-0.09961-0.19643-0.16252-0.20678zm-1.1355 0.4897c-0.02231-0.0032-0.04413-0.0032-0.06513 8.1e-4 -0.15213 0.02889-0.20554 0.33487-0.09445 0.54244 0.13907 0.25983 0.4897 0.13521 0.4897-0.17402 0-0.1646-0.17411-0.34748-0.33015-0.3693zm1.6224 0.02034c-0.15666 0-0.22436 0.30178-0.1529 0.48805 0.02816 0.07336 0.10448 0.10921 0.20252 0.09531 0.13311-0.01894 0.19858-0.06217 0.18105-0.29779-0.01722-0.23123-0.11643-0.28555-0.23067-0.28555zm-0.84638 0.38677c-0.18317 0-0.26406 0.05418-0.43951 0.29271-0.25334 0.34446-0.30859 0.42012-0.12388 0.61842 0.12303 0.13204 0.24569 0.12583 0.67568 0.10104 0.26834-0.01548 0.51905-0.04742 0.55734-0.07105 0.1094-0.0676 0.08238-0.24125-0.08043-0.51479-0.2017-0.33889-0.32284-0.42631-0.58925-0.42631z" fill="#818468" stroke-linejoin="round" stroke-width=".19183" style="paint-order:markers fill stroke"/>
  <path d="m31.773 67.985c-0.04464 0.0046-0.09359 0.04289-0.15019 0.11276-0.14676 0.18126-0.16678 0.42502-0.0447 0.54713 0.11494 0.11493 0.17313 0.10553 0.33185-0.05319 0.11535-0.1154 0.1253-0.16957 0.06299-0.34845-0.0634-0.18194-0.12553-0.26626-0.19997-0.25826zm0.66626 0.12552c-0.0629-0.01037-0.13356 0.03795-0.2089 0.1455-0.12993 0.18552-0.13839 0.34492-0.02474 0.45866 0.24488 0.24487 0.52278-0.03392 0.3961-0.39737-0.04436-0.12727-0.09961-0.19643-0.16252-0.20678zm-1.1355 0.4897c-0.02231-0.0032-0.04413-0.0032-0.06513 8.1e-4 -0.15213 0.02889-0.20554 0.33487-0.09445 0.54244 0.13907 0.25983 0.4897 0.13521 0.4897-0.17402 0-0.1646-0.17411-0.34748-0.33015-0.3693zm1.6224 0.02034c-0.15666 0-0.22436 0.30178-0.1529 0.48805 0.02816 0.07336 0.10448 0.10921 0.20252 0.09531 0.13311-0.01894 0.19858-0.06217 0.18105-0.29779-0.01722-0.23123-0.11643-0.28555-0.23067-0.28555zm-0.84638 0.38677c-0.18317 0-0.26406 0.05418-0.43951 0.29271-0.25334 0.34446-0.30859 0.42012-0.12388 0.61842 0.12303 0.13204 0.24569 0.12583 0.67568 0.10104 0.26834-0.01548 0.51905-0.04742 0.55734-0.07105 0.1094-0.0676 0.08238-0.24125-0.08043-0.51479-0.2017-0.33889-0.32284-0.42631-0.58925-0.42631z" fill="url(#linearGradient868)" stroke-linejoin="round" stroke-width=".19183" style="paint-order:markers fill stroke"/>
 </g>
</svg>
